<svg width="95" height="87" viewBox="0 0 95 87" fill="none" xmlns="http://www.w3.org/2000/svg">
<path d="M94.8903 40.5205C94.9389 41.1777 94.9715 41.8389 94.9878 42.5038L93.9881 42.5283C93.996 42.8513 94 43.1752 94 43.5C94 43.8248 93.996 44.1487 93.9881 44.4717L94.9878 44.4962C94.9715 45.1611 94.9389 45.8223 94.8903 46.4795L93.893 46.4059C93.8453 47.0522 93.7817 47.6946 93.7027 48.3326L94.6952 48.4555C94.6135 49.1148 94.5158 49.7695 94.4024 50.4195L93.4173 50.2476C93.3059 50.8853 93.1791 51.5182 93.0371 52.1461L94.0125 52.3667C93.8661 53.014 93.704 53.6562 93.5266 54.2927L92.5633 54.0241C92.3896 54.6473 92.2008 55.2651 91.9973 55.877L92.9462 56.1926C92.7369 56.8217 92.5125 57.4448 92.2734 58.0615L91.341 57.7C91.1073 58.3027 90.8591 58.8992 90.5967 59.4892L91.5105 59.8955C91.2413 60.5007 90.9578 61.0991 90.6601 61.6904L89.7669 61.2408C89.4764 61.818 89.1721 62.3883 88.8543 62.9513L89.7252 63.4428C89.4 64.0192 89.061 64.5881 88.7088 65.1492L87.8619 64.6175C87.5183 65.1648 87.1618 65.7045 86.7926 66.2362L87.6141 66.8065C87.2368 67.3499 86.8468 67.8851 86.4444 68.4118L85.6498 67.8046C85.2574 68.3181 84.8528 68.8234 84.4365 69.3201L85.203 69.9625C84.7782 70.4693 84.3415 70.9672 83.8933 71.4561L83.1562 70.7802C82.7194 71.2567 82.2712 71.7244 81.8122 72.1828L82.5188 72.8904C82.0511 73.3576 81.5723 73.8154 81.0829 74.2634L80.4076 73.5258C79.9309 73.9623 79.4437 74.3895 78.9466 74.8068L79.5896 75.5727C79.0836 75.9975 78.5676 76.4124 78.0418 76.817L77.4319 76.0246C76.9195 76.4189 76.3977 76.8033 75.8667 77.1775L76.4427 77.9949C75.9028 78.3754 75.3537 78.7455 74.7958 79.1049L74.2542 78.2642C73.7106 78.6144 73.1583 78.9543 72.5977 79.2834L73.1041 80.1457C72.5346 80.4802 71.9567 80.8037 71.3709 81.1162L70.9003 80.2339C70.3295 80.5383 69.751 80.8319 69.1651 81.1145L69.5994 82.0152C69.0045 82.3021 68.4021 82.5777 67.7927 82.8419L67.3951 81.9243C66.8013 82.1816 66.2006 82.4278 65.5933 82.6625L65.9538 83.5952C65.3383 83.8331 64.7162 84.0594 64.0877 84.2739L63.7647 83.3276C63.1528 83.5364 62.5348 83.7338 61.911 83.9195L62.1963 84.878C61.564 85.0662 60.9259 85.2426 60.2822 85.4069L60.0349 84.4379C59.4083 84.5979 58.7763 84.7461 58.1393 84.8824L58.3485 85.8603C57.7033 85.9984 57.0531 86.1243 56.3981 86.238L56.2271 85.2527C55.5896 85.3634 54.9475 85.4621 54.301 85.5487L54.4338 86.5399C53.7799 86.6274 53.1217 86.7028 52.4594 86.7657L52.3648 85.7702C51.7217 85.8313 51.0746 85.8805 50.4238 85.9174L50.4804 86.9158C49.8227 86.953 49.1613 86.9781 48.4966 86.9906L48.4777 85.9908C48.1526 85.9969 47.8267 86 47.5 86C47.1733 86 46.8474 85.9969 46.5223 85.9908L46.5034 86.9906C45.8387 86.9781 45.1773 86.953 44.5196 86.9158L44.5762 85.9174C43.9254 85.8805 43.2783 85.8313 42.6352 85.7702L42.5406 86.7657C41.8783 86.7028 41.2201 86.6274 40.5662 86.5399L40.699 85.5487C40.0525 85.4621 39.4104 85.3634 38.7729 85.2527L38.6019 86.238C37.9469 86.1243 37.2967 85.9984 36.6515 85.8603L36.8607 84.8824C36.2237 84.7462 35.5917 84.5979 34.9651 84.4379L34.7178 85.4069C34.0742 85.2426 33.436 85.0662 32.8037 84.878L33.089 83.9195C32.4652 83.7338 31.8472 83.5364 31.2353 83.3276L30.9123 84.2739C30.2838 84.0594 29.6617 83.8331 29.0462 83.5952L29.4067 82.6625C28.7994 82.4278 28.1987 82.1816 27.605 81.9243L27.2073 82.8419C26.5979 82.5777 25.9955 82.3021 25.4006 82.0152L25.8349 81.1145C25.249 80.8319 24.6705 80.5383 24.0997 80.2339L23.6291 81.1162C23.0433 80.8038 22.4654 80.4802 21.8959 80.1457L22.4023 79.2834C21.8417 78.9543 21.2894 78.6144 20.7458 78.2642L20.2042 79.1049C19.6463 78.7455 19.0972 78.3754 18.5573 77.9949L19.1333 77.1775C18.6023 76.8033 18.0805 76.4189 17.5681 76.0246L16.9582 76.817C16.4324 76.4124 15.9164 75.9975 15.4104 75.5727L16.0534 74.8068C15.5563 74.3895 15.0691 73.9623 14.5924 73.5258L13.9171 74.2634C13.4277 73.8154 12.9489 73.3576 12.4812 72.8904L13.1878 72.1828C12.7288 71.7244 12.2806 71.2567 11.8438 70.7803L11.1067 71.4561C10.6585 70.9672 10.2218 70.4693 9.79705 69.9625L10.5635 69.3201C10.1472 68.8234 9.74262 68.3181 9.35022 67.8046L8.55565 68.4118C8.15319 67.8851 7.76315 67.3499 7.38591 66.8065L8.20737 66.2362C7.83822 65.7045 7.48168 65.1648 7.13812 64.6175L6.29118 65.1492C5.93897 64.5882 5.60004 64.0192 5.27476 63.4428L6.14567 62.9514C5.82795 62.3883 5.52363 61.818 5.23308 61.2408L4.33986 61.6904C4.04223 61.0991 3.75865 60.5007 3.48953 59.8955L4.40328 59.4892C4.14095 58.8992 3.89273 58.3027 3.65899 57.7L2.72665 58.0615C2.48748 57.4448 2.26308 56.8217 2.05383 56.1926L3.00273 55.877C2.79921 55.2651 2.61041 54.6473 2.43668 54.0241L1.47341 54.2927C1.29598 53.6562 1.13388 53.0141 0.987491 52.3667L1.96286 52.1461C1.82088 51.5182 1.69405 50.8853 1.58275 50.2476L0.597643 50.4195C0.484199 49.7696 0.386476 49.1148 0.304845 48.4555L1.29726 48.3327C1.21826 47.6946 1.1547 47.0522 1.10696 46.4059L0.109677 46.4795C0.0611327 45.8223 0.0285272 45.1611 0.0122118 44.4963L1.01191 44.4717C1.00398 44.1487 1 43.8248 1 43.5C1 43.1752 1.00398 42.8513 1.01191 42.5283L0.0122116 42.5038C0.0285268 41.8389 0.061132 41.1777 0.109676 40.5205L1.10696 40.5941C1.1547 39.9478 1.21826 39.3054 1.29726 38.6674L0.304843 38.5445C0.386475 37.8852 0.484197 37.2305 0.597642 36.5805L1.58275 36.7524C1.69405 36.1147 1.82088 35.4818 1.96286 34.8539L0.987489 34.6333C1.13388 33.986 1.29598 33.3438 1.47341 32.7073L2.43668 32.9759C2.6104 32.3527 2.79921 31.7349 3.00272 31.123L2.05383 30.8074C2.26308 30.1783 2.48748 29.5552 2.72665 28.9385L3.65899 29.3C3.89273 28.6973 4.14095 28.1008 4.40328 27.5108L3.48953 27.1045C3.75865 26.4993 4.04222 25.9009 4.33986 25.3096L5.23308 25.7592C5.52363 25.182 5.82795 24.6117 6.14567 24.0487L5.27476 23.5572C5.60003 22.9808 5.93897 22.4119 6.29117 21.8508L7.13812 22.3825C7.48168 21.8352 7.83822 21.2955 8.20736 20.7638L7.38591 20.1935C7.76315 19.6501 8.15319 19.1149 8.55565 18.5882L9.35022 19.1954C9.74262 18.6819 10.1472 18.1766 10.5635 17.6799L9.79704 17.0375C10.2218 16.5308 10.6585 16.0328 11.1067 15.5439L11.8438 16.2198C12.2806 15.7433 12.7288 15.2756 13.1878 14.8172L12.4812 14.1096C12.9489 13.6424 13.4277 13.1846 13.9171 12.7366L14.5924 13.4742C15.0691 13.0377 15.5563 12.6105 16.0534 12.1932L15.4104 11.4273C15.9164 11.0025 16.4324 10.5876 16.9582 10.183L17.5681 10.9754C18.0805 10.5811 18.6023 10.1967 19.1333 9.82249L18.5573 9.00508C19.0972 8.62458 19.6463 8.25447 20.2042 7.89508L20.7458 8.73577C21.2894 8.38557 21.8417 8.04574 22.4023 7.71659L21.8959 6.85426C22.4654 6.51984 23.0433 6.19625 23.6291 5.8838L24.0997 6.76614C24.6705 6.46172 25.249 6.16807 25.8349 5.88552L25.4006 4.98477C25.9955 4.69791 26.5978 4.42226 27.2073 4.15814L27.6049 5.07569C28.1987 4.81839 28.7994 4.57224 29.4067 4.33754L29.0462 3.40477C29.6617 3.1669 30.2838 2.94056 30.9123 2.72606L31.2353 3.67245C31.8472 3.46359 32.4652 3.26618 33.089 3.08048L32.8037 2.12204C33.436 1.93383 34.0741 1.75743 34.7178 1.59313L34.9651 2.56206C35.5917 2.40211 36.2237 2.25385 36.8607 2.11756L36.6515 1.13969C37.2967 1.00165 37.9469 0.87566 38.6019 0.761983L38.7729 1.74725C39.4104 1.63662 40.0525 1.53787 40.699 1.45129L40.5662 0.460136C41.2201 0.372555 41.8783 0.297173 42.5406 0.234252L42.6352 1.22977C43.2783 1.16866 43.9254 1.11954 44.5762 1.08264L44.5196 0.0842416C45.1773 0.0469481 45.8387 0.0219134 46.5034 0.00938417L46.5223 1.00921C46.8474 1.00308 47.1733 1 47.5 1C47.8267 1 48.1526 1.00308 48.4777 1.00921L48.4966 0.00938396C49.1613 0.0219131 49.8227 0.0469476 50.4804 0.084241L50.4238 1.08264C51.0746 1.11953 51.7217 1.16866 52.3648 1.22977L52.4594 0.234252C53.1217 0.297172 53.7799 0.372553 54.4338 0.460135L54.301 1.45128C54.9475 1.53787 55.5896 1.63662 56.2271 1.74725L56.3981 0.76198C57.0531 0.875657 57.7033 1.00165 58.3485 1.13969L58.1393 2.11756C58.7763 2.25385 59.4083 2.40211 60.0349 2.56205L60.2822 1.59312C60.9258 1.75742 61.564 1.93382 62.1963 2.12204L61.911 3.08048C62.5348 3.26617 63.1528 3.46359 63.7647 3.67244L64.0877 2.72606C64.7162 2.94056 65.3383 3.16689 65.9538 3.40477L65.5933 4.33753C66.2006 4.57224 66.8013 4.81839 67.395 5.07569L67.7927 4.15814C68.4021 4.42226 69.0045 4.6979 69.5994 4.98477L69.1651 5.88552C69.751 6.16807 70.3295 6.46171 70.9003 6.76614L71.3709 5.8838C71.9567 6.19624 72.5346 6.51983 73.1041 6.85426L72.5977 7.71659C73.1583 8.04574 73.7106 8.38557 74.2542 8.73577L74.7958 7.89508C75.3537 8.25447 75.9028 8.62457 76.4427 9.00508L75.8667 9.82249C76.3977 10.1967 76.9195 10.5811 77.4319 10.9754L78.0418 10.183C78.5676 10.5876 79.0836 11.0025 79.5896 11.4273L78.9466 12.1932C79.4437 12.6105 79.9309 13.0377 80.4076 13.4741L81.0829 12.7366C81.5723 13.1846 82.0511 13.6424 82.5188 14.1096L81.8122 14.8172C82.2712 15.2756 82.7194 15.7433 83.1562 16.2198L83.8933 15.5439C84.3415 16.0328 84.7782 16.5307 85.203 17.0375L84.4365 17.6799C84.8528 18.1766 85.2574 18.6819 85.6498 19.1954L86.4444 18.5882C86.8468 19.1149 87.2368 19.6501 87.6141 20.1935L86.7926 20.7638C87.1618 21.2955 87.5183 21.8352 87.8619 22.3825L88.7088 21.8508C89.061 22.4118 89.4 22.9808 89.7252 23.5572L88.8543 24.0486C89.1721 24.6117 89.4764 25.182 89.7669 25.7592L90.6601 25.3096C90.9578 25.9009 91.2413 26.4993 91.5105 27.1045L90.5967 27.5108C90.859 28.1008 91.1073 28.6973 91.341 29.3L92.2734 28.9385C92.5125 29.5552 92.7369 30.1783 92.9462 30.8074L91.9973 31.123C92.2008 31.7349 92.3896 32.3527 92.5633 32.9759L93.5266 32.7073C93.704 33.3438 93.8661 33.9859 94.0125 34.6333L93.0371 34.8539C93.1791 35.4818 93.3059 36.1147 93.4173 36.7524L94.4024 36.5805C94.5158 37.2304 94.6135 37.8852 94.6952 38.5445L93.7027 38.6673C93.7817 39.3054 93.8453 39.9478 93.893 40.5941L94.8903 40.5205Z" fill="white" stroke="#4F692F" stroke-width="2" stroke-miterlimit="2.03203" stroke-linejoin="round" stroke-dasharray="2 2"/>
<ellipse cx="47" cy="43" rx="34" ry="32" fill="#4F692F"/>
<g clip-path="url(#clip0_123_60)">
<path d="M49.926 47.9507L42.194 44.3225L42.96 43.2455L50.6905 46.8737L49.926 47.9507Z" fill="white"/>
<path d="M57.8155 50.0166C60.0485 48.303 61.4635 45.8956 61.4635 43.2086C61.4635 39.8981 59.3235 36.9121 55.996 35.2351L59.724 29.9921L59.1385 29.7179L60.058 28.4187L57.6475 27.2881L56.726 28.5852L56.1095 28.296L46.9445 41.1952L47.745 41.5706L46.6085 43.168L48.6225 44.1129L49.7595 42.5147L50.559 42.8901L54.413 37.4671C55.6012 38.0824 56.5795 38.931 57.2575 39.9345C57.9355 40.9381 58.2915 42.0642 58.2925 43.209C58.2925 46.9628 54.5315 50.017 49.911 50.017H43.158V52.5946H62.167V50.017H57.8165L57.8155 50.0166ZM40.9415 30.1952V28.1489H41.2515L41.247 27.6582H38.4225L38.427 28.1489H38.76V30.1952H36.6525V28.1489H36.9615L36.958 27.6582H34.131L34.1365 28.1489H34.4695V30.1952H31.375V40.4453H44.0095V30.1952H40.9425H40.9415ZM42.9395 39.5776H32.4435V31.063H34.469V37.6117C34.469 38.1073 34.9675 38.5099 35.569 38.5099C36.1715 38.5079 36.652 38.1065 36.652 37.6117V31.063H38.7595V37.6117C38.7595 38.1073 39.2585 38.5099 39.86 38.5099C40.4625 38.5079 40.943 38.1065 40.942 37.6117V31.063H42.9395V39.5776Z" fill="white"/>
</g>
<defs>
<clipPath id="clip0_123_60">
<rect width="32" height="26" fill="white" transform="translate(31 27)"/>
</clipPath>
</defs>
</svg>
