<svg xmlns="http://www.w3.org/2000/svg" width="68" height="64" viewBox="0 0 68 64" fill="none">
  <ellipse cx="34" cy="32" rx="34" ry="32" fill="#4F692F"/>
  <path d="M35.0237 20.7486V20.0404H35.949V19.5927C35.949 18.7962 36.6448 18.1521 37.506 18.1521C38.3655 18.1521 39.0613 18.7962 39.0613 19.5927V20.0404H39.9664V20.7486H35.0237ZM46.4863 38.6513C46.4863 39.5274 46.1383 40.3676 45.5188 40.9871C44.8993 41.6065 44.0591 41.9546 43.183 41.9546C42.307 41.9546 41.4668 41.6065 40.8473 40.9871C40.2278 40.3676 39.8798 39.5274 39.8798 38.6513C39.8798 37.7752 40.2278 36.935 40.8473 36.3155C41.4668 35.696 42.307 35.348 43.183 35.348C44.0591 35.348 44.8993 35.696 45.5188 36.3155C46.1383 36.935 46.4863 37.7752 46.4863 38.6513ZM44.7634 38.6513C44.7634 38.2323 44.5969 37.8305 44.3007 37.5342C44.0044 37.2379 43.6026 37.0715 43.1836 37.0715C42.7646 37.0715 42.3628 37.2379 42.0665 37.5342C41.7703 37.8305 41.6038 38.2323 41.6038 38.6513C41.5999 38.8613 41.6378 39.0699 41.7154 39.265C41.793 39.4602 41.9088 39.6379 42.0558 39.7878C42.2029 39.9377 42.3784 40.0567 42.5721 40.138C42.7657 40.2193 42.9736 40.2612 43.1836 40.2612C43.3936 40.2612 43.6015 40.2193 43.7951 40.138C43.9888 40.0567 44.1643 39.9377 44.3114 39.7878C44.4585 39.6379 44.5742 39.4602 44.6518 39.265C44.7294 39.0699 44.7673 38.8613 44.7634 38.6513ZM27.57 38.6198C27.57 39.0537 27.4845 39.4834 27.3184 39.8843C27.1523 40.2851 26.9089 40.6494 26.602 40.9562C26.2951 41.2629 25.9308 41.5063 25.5299 41.6722C25.129 41.8382 24.6992 41.9235 24.2653 41.9233C23.3996 41.9074 22.5747 41.5522 21.9681 40.9343C21.3615 40.3164 21.0216 39.4851 21.0216 38.6192C21.0216 37.7533 21.3615 36.922 21.9681 36.3041C22.5747 35.6862 23.3996 35.3311 24.2653 35.3151C25.1417 35.3154 25.9821 35.6637 26.6018 36.2833C27.2214 36.903 27.5697 37.7434 27.57 38.6198ZM25.8527 38.6226C25.8527 38.4151 25.8118 38.2096 25.7324 38.0179C25.6529 37.8262 25.5365 37.652 25.3897 37.5053C25.2429 37.3586 25.0686 37.2423 24.8769 37.163C24.6851 37.0837 24.4796 37.043 24.2721 37.0431C23.9594 37.0431 23.6538 37.1358 23.3938 37.3096C23.1339 37.4833 22.9313 37.7302 22.8117 38.0191C22.6921 38.308 22.6608 38.6259 22.7219 38.9325C22.783 39.2391 22.9336 39.5208 23.1548 39.7418C23.376 39.9628 23.6577 40.1133 23.9644 40.1741C24.2711 40.235 24.5889 40.2035 24.8777 40.0837C25.1665 39.9639 25.4133 39.7611 25.5869 39.5011C25.7604 39.241 25.8529 38.9353 25.8527 38.6226Z" fill="white"/>
  <path d="M48.7307 29.2547C49.7179 29.4471 50.3085 29.8729 50.754 32.3091L51.4589 36.705C51.7125 38.1354 50.9042 38.6574 49.8962 38.6574H47.4752C47.4752 36.2871 45.5549 34.3588 43.1845 34.3588C40.8141 34.3588 38.8915 36.2871 38.8915 38.6574H28.5454C28.5454 36.2871 26.6239 34.3588 24.2535 34.3588C21.882 34.3588 19.9611 36.2871 19.9611 38.6574H17.9552C17.2487 38.6574 16.6986 38.1225 16.6986 37.4323V22.9772C16.6986 22.1897 17.3202 21.5569 18.0824 21.5569H44.0575C45.0447 21.5569 45.7664 22.0468 46.123 22.9058L48.7307 29.2553V29.2547ZM40.0722 23.0301V29.0348H47.0151L44.5795 23.0301H40.0722ZM33.861 28.2641V24.5798H30.1767V28.2641H26.4917V31.9491H30.1767V35.6329H33.861V31.9491H37.5454V28.2641H33.861Z" fill="white"/>
</svg>