<svg xmlns="http://www.w3.org/2000/svg" width="68" height="64" viewBox="0 0 68 64" fill="none">
  <ellipse cx="34" cy="32" rx="34" ry="32" fill="#4F692F"/>
  <path d="M45.3275 30.723C47.957 30.723 49.5225 32.2895 49.5225 34.6885V45.9185C49.5225 46.7885 49.4445 47.493 49.4445 47.493H37.4365V36.5785H36.947L34.718 39.904C34.355 40.399 33.618 40.639 33.031 40.639H27.7985C27.5919 40.6392 27.3872 40.5987 27.1962 40.5198C27.0052 40.4408 26.8317 40.325 26.6854 40.179C26.5392 40.033 26.4232 39.8596 26.344 39.6687C26.2649 39.4778 26.2241 39.2732 26.224 39.0665C26.224 38.1995 26.9285 37.515 27.7985 37.515H32.5575L35.8585 32.522C36.651 31.3145 38.1175 30.7385 39.4425 30.7385C39.4425 34.25 40.3175 35.736 41.8995 35.736V41.574C41.6748 41.6706 41.4833 41.8308 41.3486 42.035C41.214 42.2393 41.1422 42.4784 41.142 42.723C41.1413 42.8863 41.1729 43.0481 41.235 43.1991C41.2971 43.3501 41.3885 43.4874 41.504 43.6029C41.6194 43.7184 41.7565 43.8099 41.9075 43.8721C42.0584 43.9344 42.2202 43.9661 42.3835 43.9655C43.074 43.9655 43.627 43.398 43.627 42.706C43.627 42.191 43.3145 41.749 42.8695 41.5585V35.7185C44.4505 35.718 45.3265 34.234 45.3265 30.723H45.3275ZM44.341 30.723C44.313 34.3225 43.6905 34.796 42.384 34.796C41.079 34.796 40.456 34.322 40.4285 30.723H44.341ZM42.3625 22.6165C42.8342 22.6165 43.3013 22.7095 43.7371 22.89C44.1728 23.0706 44.5688 23.3352 44.9023 23.6688C45.2357 24.0024 45.5002 24.3985 45.6806 24.8343C45.861 25.2702 45.9537 25.7373 45.9535 26.209C45.9535 27.1615 45.5752 28.0749 44.9018 28.7484C44.2283 29.4219 43.3149 29.8004 42.3625 29.8005C41.4098 29.8005 40.4962 29.4222 39.8224 28.7487C39.1486 28.0752 38.7699 27.1617 38.7695 26.209C38.7695 25.7372 38.8624 25.27 39.043 24.8341C39.2236 24.3982 39.4883 24.0022 39.8219 23.6686C40.1556 23.335 40.5516 23.0703 40.9876 22.8898C41.4235 22.7093 41.8907 22.6165 42.3625 22.6165ZM33.5355 23.1075C33.6417 23.11 33.7473 23.0912 33.8461 23.0523C33.9449 23.0133 34.0349 22.955 34.1108 22.8807C34.1868 22.8064 34.247 22.7177 34.2881 22.6198C34.3292 22.5219 34.3503 22.4167 34.3502 22.3105C34.35 22.2043 34.3286 22.0992 34.2872 22.0014C34.2458 21.9036 34.1852 21.815 34.109 21.741C34.0329 21.667 33.9427 21.6089 33.8438 21.5703C33.7448 21.5316 33.6392 21.5132 33.533 21.516C33.3254 21.5215 33.1282 21.608 32.9834 21.7569C32.8387 21.9058 32.7578 22.1053 32.7582 22.313C32.7585 22.5207 32.84 22.72 32.9852 22.8684C33.1304 23.0168 33.3279 23.1027 33.5355 23.1075ZM27.85 18.723C27.9989 18.723 28.1462 18.6936 28.2837 18.6365C28.4212 18.5795 28.5462 18.496 28.6514 18.3907C28.7566 18.2854 28.84 18.1604 28.8969 18.0228C28.9538 17.8853 28.9831 17.7379 28.983 17.589C28.9829 17.4402 28.9536 17.2928 28.8965 17.1553C28.8395 17.0178 28.756 16.8929 28.6507 16.7877C28.5454 16.6825 28.4204 16.599 28.2828 16.5421C28.1453 16.4852 27.9979 16.456 27.849 16.456C27.5484 16.4562 27.2601 16.5757 27.0476 16.7884C26.8352 17.001 26.7159 17.2894 26.716 17.59C26.7161 17.8906 26.8357 18.1789 27.0484 18.3914C27.261 18.6039 27.5494 18.7232 27.85 18.723ZM21.6965 18.7305C22.0005 18.7317 22.2926 18.6122 22.5085 18.3981C22.7244 18.1841 22.8466 17.893 22.848 17.589C22.8466 17.285 22.7244 16.994 22.5085 16.7799C22.2926 16.5659 22.0005 16.4463 21.6965 16.4475C21.546 16.4469 21.3969 16.476 21.2577 16.533C21.1184 16.5901 20.9918 16.674 20.885 16.78C20.7782 16.886 20.6934 17.012 20.6353 17.1508C20.5772 17.2897 20.547 17.4385 20.5465 17.589C20.5477 17.8929 20.6695 18.1838 20.8852 18.3979C21.1008 18.6119 21.3927 18.7316 21.6965 18.7305Z" fill="white"/>
  <path d="M32.4561 29.9729C32.457 30.097 32.5069 30.2156 32.5949 30.303C32.683 30.3904 32.802 30.4394 32.9261 30.4394C33.0497 30.4392 33.1681 30.3899 33.2555 30.3025C33.3428 30.215 33.3919 30.0965 33.3921 29.9729V27.1829H33.7571V29.9729C33.7571 30.2299 33.9661 30.4394 34.2241 30.4394C34.348 30.4394 34.4669 30.3904 34.5548 30.303C34.6427 30.2155 34.6924 30.0969 34.6931 29.9729V24.7574H35.0541V26.5259C35.0541 26.7184 35.2096 26.8744 35.4011 26.8744C35.4466 26.8743 35.4916 26.8652 35.5336 26.8476C35.5756 26.8299 35.6136 26.8042 35.6456 26.7718C35.6776 26.7394 35.7028 26.701 35.7199 26.6588C35.737 26.6166 35.7455 26.5715 35.7451 26.5259V24.5154C35.7451 23.9524 35.2491 23.4959 34.6881 23.4959C34.6881 23.4959 32.5301 23.4974 32.5211 23.4984L31.8226 23.4309L30.9251 20.3029C30.5631 19.0414 29.5071 19.0814 29.5071 19.0814H26.5976C26.5976 19.0814 25.5416 19.0414 25.1796 20.3029L24.7096 21.9409L24.2396 20.3029C23.8776 19.0414 22.8216 19.0814 22.8216 19.0814H20.5706C20.5706 19.0814 19.5151 19.0414 19.1531 20.3029L18.2471 23.4594C18.1606 23.7539 18.3051 24.0289 18.5621 24.1034C18.8201 24.1764 19.1016 23.9974 19.1706 23.7619L20.0501 20.6844H20.4806L19.1926 26.0114H20.3306V29.7954C20.3306 30.1074 20.5821 30.3604 20.8941 30.3604C21.2066 30.3604 21.4616 30.1074 21.4616 29.7954V26.0114H21.9381V29.7954C21.9381 29.9453 21.9976 30.089 22.1035 30.195C22.2095 30.3009 22.3532 30.3604 22.5031 30.3604C22.6529 30.3604 22.7966 30.3009 22.9026 30.195C23.0085 30.089 23.0681 29.9453 23.0681 29.7954V26.0114H24.1876L22.9111 20.6844H23.3416L24.2221 23.7619C24.2821 23.9664 24.4696 24.1314 24.6911 24.1129C24.9126 24.1319 25.1386 23.9659 25.1966 23.7619L26.0781 20.6844H26.4746V29.6864C26.4793 29.8601 26.5516 30.0251 26.6762 30.1462C26.8007 30.2674 26.9676 30.3352 27.1413 30.3352C27.315 30.3352 27.4819 30.2674 27.6064 30.1462C27.731 30.0251 27.8033 29.8601 27.8081 29.6864V24.5649H28.2996V29.6864C28.3062 29.8586 28.3793 30.0215 28.5035 30.141C28.6277 30.2604 28.7933 30.3271 28.9656 30.3271C29.1379 30.3271 29.3035 30.2604 29.4276 30.141C29.5518 30.0215 29.6249 29.8586 29.6316 29.6864V20.6844H30.0621L30.8806 23.6594C30.9321 23.8379 31.1171 24.0119 31.3156 24.0719L32.4571 24.3914V29.9734L32.4561 29.9729Z" fill="white"/>
</svg>
