<svg xmlns="http://www.w3.org/2000/svg" width="68" height="64" viewBox="0 0 68 64" fill="none">
  <ellipse cx="34" cy="32" rx="34" ry="32" fill="#4F692F"/>
  <path d="M39.298 30.7105L30.947 29.3365L32.145 28.4835L34.1505 28.761L36.1535 28.4835L39.298 30.7105ZM34.1505 14.929C34.5486 14.929 34.9428 15.0074 35.3106 15.1598C35.6784 15.3122 36.0126 15.5356 36.2941 15.8171C36.5755 16.0987 36.7988 16.4329 36.951 16.8008C37.1033 17.1686 37.1816 17.5629 37.1815 17.961C37.1815 19.636 36.114 20.993 34.1505 20.993C33.7477 21.0003 33.3475 20.9273 32.9732 20.7782C32.5989 20.6291 32.2581 20.407 31.9707 20.1247C31.6832 19.8424 31.4549 19.5057 31.299 19.1342C31.1432 18.7627 31.0629 18.3639 31.0629 17.961C31.0629 17.5581 31.1432 17.1593 31.299 16.7878C31.4549 16.4163 31.6832 16.0796 31.9707 15.7973C32.2581 15.515 32.5989 15.2929 32.9732 15.1438C33.3475 14.9947 33.7477 14.9217 34.1505 14.929ZM34.905 36.842V44.1695C34.905 44.6086 35.0794 45.0296 35.3899 45.3401C35.7003 45.6506 36.1214 45.825 36.5605 45.825C36.9995 45.825 37.4206 45.6506 37.7311 45.3401C38.0416 45.0296 38.216 44.6086 38.216 44.1695V36.842C38.2054 36.41 38.0263 35.9992 37.717 35.6974C37.4077 35.3956 36.9926 35.2267 36.5605 35.2267C36.1283 35.2267 35.7133 35.3956 35.404 35.6974C35.0947 35.9992 34.9156 36.41 34.905 36.842ZM45.046 41.0255C45.0458 41.2801 44.9448 41.5242 44.7649 41.7044C44.585 41.8845 44.3411 41.986 44.0865 41.9865H39.0105V37.1885H41.206V32.3935C41.206 31.8655 41.6365 31.4345 42.165 31.4345H44.0865C44.6145 31.4345 45.046 31.865 45.046 32.3935V41.0255ZM34.113 41.986H24.2585C24.1323 41.986 24.0074 41.9611 23.8909 41.9128C23.7743 41.8645 23.6685 41.7937 23.5793 41.7045C23.4901 41.6152 23.4195 41.5093 23.3713 41.3927C23.3231 41.2761 23.2983 41.1512 23.2985 41.025V32.393C23.2987 32.1386 23.4 31.8946 23.58 31.7148C23.76 31.535 24.004 31.434 24.2585 31.434H26.179C26.7085 31.434 27.139 31.8645 27.139 32.393V37.188H34.113V41.986ZM28.924 31.6335C28.8528 32.0667 28.9564 32.5105 29.2122 32.8673C29.4679 33.2241 29.8549 33.4648 30.288 33.5365L37.5175 34.728C37.9507 34.7988 38.3942 34.6948 38.7508 34.4389C39.1074 34.183 39.3479 33.796 39.4195 33.363C39.4549 33.1486 39.4478 32.9292 39.3984 32.7176C39.349 32.5059 39.2584 32.3061 39.1317 32.1295C39.005 31.9529 38.8448 31.803 38.6601 31.6883C38.4754 31.5737 38.27 31.4966 38.0555 31.4615L30.826 30.269C30.3929 30.1982 29.9494 30.3021 29.5928 30.5579C29.2362 30.8137 28.9957 31.2006 28.924 31.6335ZM20.7705 22.5585C18.4115 22.5585 16.493 20.64 16.493 18.2795C16.493 15.919 18.4115 14 20.7705 14C23.1295 14 25.0505 15.9195 25.0505 18.2795C25.0505 20.64 23.1295 22.5585 20.7705 22.5585ZM20.7705 21.4995C21.6243 21.4984 22.4429 21.1588 23.0467 20.5551C23.6505 19.9514 23.9903 19.1329 23.9915 18.279C23.9915 16.5045 22.545 15.0585 20.7705 15.0585C18.9945 15.0585 17.5515 16.5045 17.5515 18.279C17.552 19.1327 17.8913 19.9513 18.4948 20.5551C19.0983 21.1589 19.9168 21.4986 20.7705 21.4995Z" fill="white"/>
  <path d="M20.7925 18.8445C20.7435 18.8671 20.6896 18.8768 20.6358 18.8727C20.582 18.8687 20.5301 18.8511 20.485 18.8215C20.4466 18.7969 20.4138 18.7644 20.389 18.7261C20.3642 18.6878 20.3478 18.6447 20.341 18.5995L20.3365 16.1125C20.3398 16.0294 20.3751 15.9508 20.4351 15.8931C20.4951 15.8354 20.575 15.8032 20.6582 15.8032C20.7414 15.8032 20.8214 15.8354 20.8814 15.8931C20.9414 15.9508 20.9767 16.0294 20.98 16.1125V18.042L22.6295 17.265C22.6676 17.2468 22.709 17.2363 22.7512 17.2342C22.7934 17.232 22.8356 17.2381 22.8754 17.2523C22.9152 17.2665 22.9518 17.2884 22.9832 17.3167C23.0145 17.3451 23.0399 17.3793 23.058 17.4175C23.0943 17.4947 23.0985 17.5832 23.0697 17.6635C23.041 17.7438 22.9815 17.8094 22.9045 17.846L20.7925 18.844V18.8445ZM34.1505 23.405L38.081 22.765V25.528L40.0215 26.9875C40.208 27.1755 40.1325 27.3895 40.0885 27.45C40.0358 27.5202 39.9574 27.5666 39.8706 27.5792C39.7837 27.5917 39.6954 27.5694 39.625 27.517L37.176 25.666C36.932 25.5011 36.6332 25.4385 36.3435 25.4914C36.0539 25.5444 35.7966 25.7089 35.6268 25.9494C35.457 26.19 35.3883 26.4876 35.4355 26.7782C35.4826 27.0689 35.6419 27.3295 35.879 27.504L40.0635 30.443C40.258 30.58 40.5345 30.6735 40.81 30.6735C41.045 30.6735 41.3215 30.576 41.5275 30.43C41.9665 30.118 42.128 29.5645 41.979 29.0545L40.425 24.4625C40.01 23.3215 38.9635 21.9785 37.3915 21.9785H30.909C29.3375 21.9785 28.291 23.3215 27.8755 24.4625L26.3215 29.0545C26.172 29.5645 26.3345 30.1185 26.7735 30.43C26.978 30.576 27.2555 30.6735 27.4895 30.6735C27.7665 30.6735 28.0435 30.5805 28.2375 30.443L32.422 27.504C32.6591 27.3295 32.8183 27.0689 32.8655 26.7782C32.9126 26.4876 32.844 26.19 32.6742 25.9494C32.5044 25.7089 32.2471 25.5444 31.9575 25.4914C31.6678 25.4385 31.3689 25.5011 31.125 25.666L28.6745 27.517C28.6042 27.5692 28.5161 27.5914 28.4294 27.5789C28.3428 27.5663 28.2646 27.52 28.212 27.45C28.1676 27.3773 28.1498 27.2913 28.1619 27.2069C28.1739 27.1225 28.215 27.045 28.278 26.9875C28.278 26.9875 29.594 25.999 30.2195 25.528V22.765L34.1505 23.4055V23.405Z" fill="white"/>
</svg>