<svg xmlns="http://www.w3.org/2000/svg" width="20" height="20" viewBox="0 0 20 20" fill="none">
  <g clip-path="url(#clip0_6_20)">
    <path d="M19.7266 10.039C19.7266 11.3984 19.6992 12.7617 19.7344 14.1211C19.793 16.5273 18.2812 18.3867 16.3555 19.2148C15.582 19.5469 14.7695 19.7226 13.9297 19.7226C11.3008 19.7265 8.66797 19.7617 6.03906 19.7109C4.05859 19.6719 2.42969 18.8437 1.26172 17.2109C0.648437 16.3515 0.355469 15.375 0.355469 14.3164C0.355469 11.5156 0.355469 8.71873 0.355469 5.91794C0.355469 3.63279 1.46875 2.03513 3.44531 0.996069C4.30469 0.54685 5.23828 0.355444 6.21094 0.351538C8.76172 0.351538 11.3164 0.335913 13.8672 0.35935C15.8477 0.374975 17.5 1.13279 18.7188 2.72654C19.3984 3.61716 19.7266 4.6406 19.7266 5.7656C19.7266 7.18748 19.7266 8.61326 19.7266 10.039ZM1.79688 10.039C1.79688 11.4726 1.79688 12.9023 1.79688 14.3359C1.79688 14.9765 1.94531 15.5781 2.27734 16.1211C3.14844 17.5469 4.46484 18.2422 6.09766 18.2695C8.71875 18.3086 11.3438 18.2851 13.9688 18.2773C14.6133 18.2773 15.2383 18.1445 15.8203 17.8672C17.4062 17.1094 18.293 15.9023 18.2852 14.0898C18.2695 11.3164 18.2812 8.54294 18.2812 5.76951C18.2812 4.98435 18.0586 4.2656 17.5938 3.63279C16.6953 2.41794 15.4531 1.82029 13.9688 1.80466C11.3516 1.77341 8.73438 1.79294 6.11719 1.79685C5.55859 1.79685 5.01953 1.91013 4.49609 2.10544C3.05859 2.6406 1.72266 3.99607 1.78516 5.99216C1.83203 7.34372 1.79688 8.69138 1.79688 10.039Z" fill="white"/>
    <path d="M10.0625 14.1796C7.54297 14.1796 5.51172 12.1718 5.50782 9.67182C5.50391 7.21088 7.55079 5.19526 10.0547 5.19526C12.5664 5.19135 14.6055 7.20307 14.6094 9.68354C14.6094 12.1601 12.5742 14.1757 10.0625 14.1796ZM10.0625 12.7343C11.7773 12.7343 13.168 11.3632 13.1641 9.67573C13.1602 8.00385 11.7695 6.63666 10.0625 6.63666C8.34766 6.63666 6.94922 7.99994 6.94922 9.68354C6.95313 11.371 8.34766 12.7382 10.0625 12.7343Z" fill="white"/>
    <path d="M15.1367 3.82812C15.6641 3.82812 16.0937 4.27734 16.0937 4.82812C16.0898 5.37891 15.6562 5.82422 15.1289 5.82031C14.6094 5.81641 14.1836 5.37109 14.1836 4.83203C14.1797 4.28125 14.6094 3.82812 15.1367 3.82812Z" fill="white"/>
  </g>
  <defs>
    <clipPath id="clip0_6_20">
      <rect width="20" height="20" fill="white"/>
    </clipPath>
  </defs>
</svg>