<svg xmlns="http://www.w3.org/2000/svg" width="30" height="30" viewBox="0 0 30 30" fill="none">
  <g clip-path="url(#clip0_96_7)">
    <path d="M18.3499 24.8274L11.4688 20.8941L12.1506 19.7264L19.0308 23.6583L18.3499 24.8274Z" fill="white"/>
    <path d="M25.3721 27.0675C27.3617 25.2103 28.6198 22.5984 28.6198 19.6856C28.6198 16.094 26.7159 12.8573 23.7538 11.0381L27.0705 5.35076L26.5492 5.05169L27.3698 3.64498L25.2249 2.41873L24.4048 3.82404L23.8542 3.51044L15.6974 17.4998L16.4114 17.9081L15.3996 19.642L17.1894 20.6644L18.2012 18.9323L18.9133 19.3401L22.3428 13.4573C23.401 14.1241 24.2722 15.0445 24.8757 16.1332C25.4793 17.2219 25.7956 18.4437 25.7954 19.6856C25.7954 23.7572 22.4493 27.0675 18.3366 27.0675H12.3257V29.8626H29.2448V27.0675H25.3721ZM7.78881 0.541382C3.97442 0.541382 0.870728 3.61451 0.870728 7.38935C0.870728 11.1661 3.97489 14.2383 7.78881 14.2383C11.6018 14.2383 14.705 11.1661 14.705 7.38935C14.705 3.61451 11.6023 0.541382 7.78881 0.541382ZM7.78881 13.604C4.32764 13.604 1.50993 10.8159 1.50993 7.38935C1.50993 3.96373 4.32764 1.17466 7.78881 1.17466C11.2481 1.17466 14.0653 3.96419 14.0653 7.38935C14.0653 10.8159 11.2481 13.604 7.78881 13.604Z" fill="white"/>
    <path d="M4.20789 6.93845H5.53601V5.60486H4.20789V6.93845Z" fill="white"/>
    <path d="M7.79446 2.00159C4.79209 2.00159 2.34985 4.42081 2.34985 7.39362C2.34985 10.3655 4.79209 12.7819 7.79446 12.7819C10.7954 12.7819 13.2372 10.3655 13.2372 7.39362C13.2372 4.42081 10.7954 2.00159 7.79446 2.00159ZM3.74048 7.40674V5.13799H6.01557V7.40674H3.74048ZM6.08375 11.5542C5.78432 11.5542 5.49715 11.4365 5.28541 11.2269C5.07368 11.0172 4.95473 10.7329 4.95473 10.4365C4.95473 10.1401 5.07368 9.85577 5.28541 9.64615C5.49715 9.43653 5.78432 9.31877 6.08375 9.31877C6.23197 9.31896 6.37869 9.34805 6.51554 9.40438C6.6524 9.46072 6.7767 9.5432 6.88135 9.6471C6.98599 9.75101 7.06894 9.87431 7.12544 10.01C7.18194 10.1456 7.2109 10.2909 7.21065 10.4377C7.21071 10.5842 7.18161 10.7294 7.12501 10.8648C7.06842 11.0003 6.98543 11.1233 6.88079 11.227C6.77614 11.3307 6.6519 11.413 6.51514 11.4691C6.37839 11.5253 6.2318 11.5542 6.08375 11.5542ZM7.44834 9.07315C7.29742 9.07748 7.14715 9.05179 7.00643 8.9976C6.86572 8.94341 6.73741 8.86182 6.62912 8.75767C6.52082 8.65352 6.43473 8.52891 6.37594 8.39123C6.31715 8.25355 6.28686 8.10559 6.28686 7.95612C6.28686 7.80664 6.31715 7.65868 6.37594 7.521C6.43473 7.38332 6.52082 7.25872 6.62912 7.15457C6.73741 7.05041 6.86572 6.96883 7.00643 6.91464C7.14715 6.86045 7.29742 6.83476 7.44834 6.83909C7.74759 6.83909 8.03458 6.95677 8.24618 7.16626C8.45778 7.37574 8.57665 7.65986 8.57665 7.95612C8.57665 8.25237 8.45778 8.53649 8.24618 8.74598C8.03458 8.95546 7.74759 9.07315 7.44834 9.07315ZM8.23906 4.84315C7.92406 4.84253 7.62216 4.71828 7.39956 4.49763C7.17695 4.27699 7.05181 3.97797 7.05156 3.66612C7.05137 3.51166 7.08196 3.35868 7.14156 3.21594C7.20117 3.07319 7.28862 2.94349 7.39892 2.83425C7.50922 2.72501 7.6402 2.63837 7.78436 2.57931C7.92853 2.52024 8.08304 2.4899 8.23906 2.49002C8.54845 2.49867 8.84223 2.62642 9.05798 2.84613C9.27373 3.06583 9.39443 3.36017 9.39443 3.66659C9.39443 3.973 9.27373 4.26734 9.05798 4.48705C8.84223 4.70675 8.54845 4.8345 8.23906 4.84315ZM10.2092 10.8333C9.90998 10.8333 9.62299 10.7156 9.41139 10.5061C9.19979 10.2967 9.08091 10.0125 9.08091 9.71627C9.08091 9.42002 9.19979 9.1359 9.41139 8.92641C9.62299 8.71693 9.90998 8.59924 10.2092 8.59924C10.5082 8.59949 10.7948 8.71724 11.0061 8.92661C11.2174 9.13598 11.3361 9.41984 11.3361 9.7158C11.3363 9.86245 11.3073 10.0077 11.2508 10.1432C11.1942 10.2788 11.1112 10.402 11.0066 10.5057C10.9019 10.6095 10.7777 10.6919 10.6408 10.7481C10.504 10.8043 10.3574 10.8332 10.2092 10.8333ZM10.4483 7.55112C10.149 7.55087 9.86195 7.43289 9.65044 7.22315C9.43893 7.0134 9.32025 6.72906 9.3205 6.43268C9.32075 6.1363 9.43992 5.85216 9.65178 5.64276C9.86365 5.43337 10.1509 5.31587 10.4502 5.31612C10.7496 5.31637 11.0366 5.43434 11.2481 5.64409C11.4596 5.85384 11.5783 6.13818 11.5781 6.43456C11.5778 6.73094 11.4587 7.01508 11.2468 7.22447C11.0349 7.43387 10.7477 7.55137 10.4483 7.55112Z" fill="white"/>
  </g>
  <defs>
    <clipPath id="clip0_96_7">
      <rect width="30" height="30" fill="white"/>
    </clipPath>
  </defs>
</svg>