<svg xmlns="http://www.w3.org/2000/svg" width="68" height="64" viewBox="0 0 68 64" fill="none">
  <ellipse cx="34" cy="32" rx="34" ry="32" fill="#4F692F"/>
  <path d="M33.926 37.9507L26.194 34.3225L26.96 33.2455L34.6905 36.8737L33.926 37.9507Z" fill="white"/>
  <path d="M41.8155 40.0166C44.0485 38.303 45.4635 35.8956 45.4635 33.2086C45.4635 29.8981 43.3235 26.9121 39.996 25.2351L43.724 19.9921L43.1385 19.7179L44.058 18.4187L41.6475 17.2881L40.726 18.5852L40.1095 18.296L30.9445 31.1952L31.745 31.5706L30.6085 33.168L32.6225 34.1129L33.7595 32.5147L34.559 32.8901L38.413 27.4671C39.6012 28.0824 40.5795 28.931 41.2575 29.9345C41.9355 30.9381 42.2915 32.0642 42.2925 33.209C42.2925 36.9628 38.5315 40.017 33.911 40.017H27.158V42.5946H46.167V40.017H41.8165L41.8155 40.0166ZM24.9415 20.1952V18.1489H25.2515L25.247 17.6582H22.4225L22.427 18.1489H22.76V20.1952H20.6525V18.1489H20.9615L20.958 17.6582H18.131L18.1365 18.1489H18.4695V20.1952H15.375V30.4453H28.0095V20.1952H24.9425H24.9415ZM26.9395 29.5776H16.4435V21.063H18.469V27.6117C18.469 28.1073 18.9675 28.5099 19.569 28.5099C20.1715 28.5079 20.652 28.1065 20.652 27.6117V21.063H22.7595V27.6117C22.7595 28.1073 23.2585 28.5099 23.86 28.5099C24.4625 28.5079 24.943 28.1065 24.942 27.6117V21.063H26.9395V29.5776Z" fill="white"/>
</svg>
