<svg xmlns="http://www.w3.org/2000/svg" width="26" height="32" viewBox="0 0 26 32" fill="none">
  <path d="M13.058 7.90648C10.842 7.90648 9.04248 6.12248 9.04248 3.92298C9.04248 1.72398 10.842 -0.059021 13.058 -0.059021C15.2745 -0.059021 17.073 1.72398 17.073 3.92298C17.073 6.12248 15.2745 7.90648 13.058 7.90648ZM23.9265 26.4745C23.0275 26.7325 22.108 26.28 21.872 25.456L18.798 14.7245L17.299 14.7225L22.2115 31.8455H3.90548L8.81898 14.7225L7.31748 14.7245L4.24448 25.456C4.00798 26.28 3.08798 26.7325 2.19098 26.4745C1.29148 26.2165 0.723481 25.431 1.02548 24.402L4.18698 13.391C5.44998 8.99048 9.13398 9.12798 9.13398 9.12798H16.9845C16.9845 9.12798 20.6675 8.99048 21.932 13.391L25.0925 24.402C25.395 25.431 24.8265 26.2165 23.9275 26.4745H23.9265ZM13.0595 18.9575C9.77998 18.9575 7.12248 21.613 7.12248 24.893C7.12248 28.1705 9.77998 30.829 13.0595 30.829C16.3355 30.829 18.9935 28.171 18.9935 24.893C18.9935 21.613 16.3365 18.9575 13.0595 18.9575ZM14.335 23.448C14.1655 23.3681 14.0134 23.2555 13.8874 23.1167C13.7615 22.9779 13.6642 22.8157 13.6011 22.6392C13.5381 22.4627 13.5104 22.2755 13.5198 22.0884C13.5293 21.9012 13.5755 21.7177 13.656 21.5485C13.8182 21.2072 14.1093 20.9442 14.4652 20.8173C14.8211 20.6903 15.2129 20.7098 15.5545 20.8715C15.8962 21.0338 16.1595 21.3252 16.2865 21.6815C16.4136 22.0379 16.3939 22.4301 16.232 22.772C16.07 23.1132 15.779 23.3761 15.4232 23.5029C15.0674 23.6297 14.6763 23.6099 14.335 23.448ZM15.6635 25.4345C15.523 25.733 14.772 27.3155 14.6195 27.6335C14.4163 28.0609 14.0519 28.3903 13.6062 28.5494C13.1605 28.7086 12.6699 28.6845 12.242 28.4825C11.953 28.3435 11.7315 28.13 11.5455 27.8955C11.2635 27.5395 11.0745 26.5895 11.0745 26.5895C10.7785 26.7985 10.021 27.276 9.70748 27.4985C9.57021 27.5943 9.4006 27.6319 9.23571 27.603C9.07082 27.5742 8.92406 27.4812 8.82748 27.3445C8.77958 27.2768 8.74549 27.2004 8.72716 27.1196C8.70882 27.0388 8.7066 26.9551 8.72063 26.8734C8.73465 26.7917 8.76464 26.7136 8.80889 26.6435C8.85314 26.5734 8.91076 26.5128 8.97848 26.465C9.42948 26.1495 10.68 25.2995 10.68 25.2995C10.7701 25.2355 10.8719 25.19 10.9797 25.1655C11.0874 25.1411 11.199 25.1382 11.3079 25.157C11.4167 25.1758 11.5208 25.216 11.6141 25.2752C11.7074 25.3344 11.7881 25.4115 11.8515 25.502L12.3825 26.5805L13.2265 24.8745L12.489 24.6585C12.409 24.6352 12.3346 24.5959 12.2703 24.5431C12.2059 24.4902 12.1529 24.4249 12.1145 24.351L11.391 22.9615C11.3155 22.8169 11.3006 22.6482 11.3495 22.4926C11.3984 22.337 11.5071 22.2072 11.6517 22.1317C11.7963 22.0563 11.965 22.0414 12.1206 22.0903C12.2762 22.1392 12.406 22.2479 12.4815 22.3925L13.084 23.5515C13.4815 23.668 15.098 24.138 15.098 24.138C15.1855 24.1655 15.259 24.215 15.3255 24.2725C15.5136 24.3917 15.6517 24.5755 15.7138 24.7894C15.776 25.0033 15.7579 25.2325 15.663 25.434L15.6635 25.4345Z" fill="white"/>
</svg>