<svg xmlns="http://www.w3.org/2000/svg" width="32" height="32" viewBox="0 0 32 32" fill="none">
  <g clip-path="url(#clip0_101_2)">
    <path d="M0.331482 20.355H26.101V22.3835H0.331482V20.355Z" fill="white"/>
    <path d="M19.481 25.8325C19.481 24.4805 13.5285 24.616 13.5285 25.8505V30.426C13.469 31.056 13.9265 31.674 14.559 31.674L30.503 31.675C30.6535 31.6752 30.8027 31.6457 30.9418 31.5882C31.081 31.5307 31.2074 31.4463 31.3139 31.3398C31.4204 31.2334 31.5049 31.107 31.5625 30.9678C31.62 30.8287 31.6496 30.6796 31.6495 30.529L31.651 16.042C31.651 6.93902 23.8375 -0.377479 14.5625 0.466022C14.2595 0.493682 13.98 0.640436 13.7852 0.874055C13.5904 1.10767 13.4962 1.40906 13.5235 1.71202V6.64202H19.481V3.15002C25.1755 4.67702 29.356 9.87602 29.358 16.0375C29.3375 22.195 25.178 27.418 19.481 28.937V25.8315V25.8325Z" fill="white"/>
    <path d="M21.4885 16.077C21.4883 15.7399 21.5546 15.4061 21.6836 15.0946C21.8125 14.7831 22.0015 14.5001 22.2399 14.2617C22.4782 14.0233 22.7612 13.8343 23.0726 13.7053C23.3841 13.5763 23.7179 13.5099 24.055 13.51C24.7359 13.5103 25.3889 13.7807 25.8705 14.262C26.3522 14.7433 26.6232 15.3961 26.624 16.077C26.6225 16.7578 26.3514 17.4103 25.8699 17.8916C25.3884 18.3729 24.7358 18.6438 24.055 18.645C23.3743 18.6441 22.7218 18.3732 22.2407 17.8917C21.7595 17.4103 21.489 16.7576 21.4885 16.077ZM18.206 13.42H9.60547L0.310974 14.8425V18.6415L7.07147 18.6425C6.85796 18.3025 6.74399 17.9095 6.74247 17.508C6.7434 16.9323 6.97255 16.3804 7.37969 15.9733C7.78683 15.5663 8.33875 15.3373 8.91447 15.3365H13.625L17.4425 14.539L17.655 15.5525L13.732 16.3715H8.91447C8.76536 16.3705 8.61751 16.3989 8.47937 16.4551C8.34122 16.5112 8.2155 16.594 8.10936 16.6988C7.895 16.9103 7.77346 17.1983 7.77147 17.4995C7.76949 17.8006 7.88721 18.0902 8.09875 18.3046C8.31029 18.519 8.59832 18.6405 8.89947 18.6425L18.2245 18.644C19.6675 18.6325 20.8245 17.471 20.8245 16.0355C20.8245 15.6917 20.7568 15.3513 20.6252 15.0337C20.4935 14.7161 20.3006 14.4276 20.0573 14.1847C19.8141 13.9417 19.5253 13.7492 19.2075 13.6179C18.8898 13.4867 18.5498 13.4195 18.206 13.42Z" fill="white"/>
  </g>
  <defs>
    <clipPath id="clip0_101_2">
      <rect width="32" height="32" fill="white"/>
    </clipPath>
  </defs>
</svg>