<svg xmlns="http://www.w3.org/2000/svg" width="30" height="32" viewBox="0 0 30 32" fill="none">
  <path d="M22.2025 15.4635H18.594V11.241C19.3252 10.6676 19.9164 9.93529 20.3228 9.09962C20.7293 8.26396 20.9403 7.34678 20.94 6.41752C20.94 3.02752 18.193 0.280518 14.8045 0.280518C12.0195 0.280518 9.45297 2.37002 8.91997 4.67352C8.80097 5.18352 8.66697 6.52152 8.66697 6.52152L7.38747 9.75002C7.35591 9.82483 7.34327 9.90628 7.35069 9.98714C7.3581 10.068 7.38534 10.1458 7.42998 10.2136C7.47462 10.2814 7.5353 10.3372 7.60663 10.376C7.67797 10.4148 7.75777 10.4354 7.83897 10.436C7.90656 10.2968 8.01826 10.1838 8.1567 10.1146C8.29514 10.0455 8.45255 10.024 8.60447 10.0535C8.98647 10.1235 9.23597 10.4935 9.16047 10.875C9.13612 11.0017 9.07695 11.119 8.98959 11.2138C8.90224 11.3087 8.79017 11.3773 8.66597 11.412V12.151C8.6661 12.7926 8.92098 13.4078 9.37459 13.8615C9.8282 14.3152 10.4434 14.5703 11.085 14.5705H12.0465V15.4635H8.13747C3.64497 15.46 0.704468 18.76 0.704468 22.132V31.542L5.64997 31.54V23.3935H7.07397V31.54L22.8565 31.542V23.394H24.316V31.542L29.155 31.54L29.1585 21.2435C29.159 18.6785 26.619 15.4605 22.201 15.4635H22.2025ZM10.153 9.09502C10.033 9.19302 9.87447 9.24702 9.72247 9.24702C9.50447 9.24702 9.29797 9.14902 9.16747 8.97452C9.10915 8.90284 9.06603 8.82003 9.04076 8.73115C9.01549 8.64226 9.00858 8.54916 9.02047 8.45752C9.04197 8.26602 9.13947 8.10352 9.28647 7.98852C9.58097 7.75452 10.044 7.80902 10.2725 8.10352C10.3925 8.25552 10.4415 8.44052 10.4195 8.62602C10.398 8.81102 10.305 8.98002 10.153 9.09502ZM12.2485 8.60452V8.62052L12.0955 8.61002C11.9094 8.59373 11.7374 8.50441 11.6171 8.3616C11.4968 8.21878 11.4379 8.03412 11.4535 7.84802C11.47 7.67233 11.551 7.50897 11.6808 7.38942C11.8106 7.26987 11.98 7.20258 12.1565 7.20052L12.216 7.20602C12.401 7.22202 12.575 7.30902 12.6955 7.45052C12.8145 7.59852 12.875 7.77802 12.858 7.96852C12.8446 8.12834 12.7769 8.27876 12.6661 8.39468C12.5553 8.51061 12.408 8.58502 12.249 8.60552L12.2485 8.60452ZM13.7775 9.49152C13.7235 9.41691 13.6852 9.33216 13.6648 9.24237C13.6445 9.15258 13.6425 9.0596 13.659 8.96902C13.674 8.87735 13.7073 8.78963 13.7569 8.71105C13.8064 8.63247 13.8712 8.56462 13.9475 8.51152C14.2525 8.29352 14.7095 8.37552 14.9275 8.67952C15.0347 8.83303 15.0771 9.02265 15.0455 9.20723C15.0139 9.39182 14.9107 9.55648 14.7585 9.66552C14.6385 9.74752 14.497 9.79102 14.35 9.79102C14.1215 9.79102 13.9085 9.68252 13.778 9.49102L13.7775 9.49152ZM14.992 14.833C14.8059 14.8325 14.6277 14.7584 14.4962 14.6268C14.3646 14.4953 14.2905 14.317 14.29 14.131C14.2983 13.9496 14.3763 13.7784 14.5076 13.653C14.639 13.5275 14.8136 13.4576 14.9952 13.4576C15.1768 13.4576 15.3515 13.5275 15.4828 13.653C15.6141 13.7784 15.6921 13.9496 15.7005 14.131C15.7005 14.517 15.3845 14.833 14.992 14.833ZM14.992 12.252C14.8994 12.2516 14.8078 12.233 14.7224 12.1972C14.637 12.1614 14.5595 12.1092 14.4943 12.0434C14.4291 11.9777 14.3776 11.8997 14.3425 11.814C14.3074 11.7284 14.2896 11.6366 14.29 11.544C14.2904 11.4514 14.309 11.3598 14.3448 11.2745C14.3806 11.1891 14.4328 11.1116 14.4986 11.0464C14.5643 10.9812 14.6423 10.9296 14.7279 10.8945C14.8136 10.8595 14.9054 10.8416 14.998 10.842C15.1849 10.8428 15.3639 10.9179 15.4956 11.0506C15.6273 11.1834 15.7008 11.363 15.7 11.55C15.6992 11.737 15.6241 11.916 15.4914 12.0476C15.3586 12.1793 15.1789 12.2528 14.992 12.252ZM17.9535 18.391C20.5145 18.302 21.977 24.052 21.095 29.421C20.5765 31.699 19.2175 29.3615 18.023 29.16C16.7015 28.937 15.957 28.783 15.8945 28.0905C15.665 25.5825 16.6265 18.4395 17.9535 18.391ZM14.0785 28.0715C14.0155 28.762 13.273 28.9155 11.9505 29.138C10.7565 29.3395 9.33047 31.8135 8.87847 29.3995C7.99747 24.0295 9.46097 18.2795 12.0185 18.371C13.348 18.42 14.308 25.561 14.0785 28.0715ZM15.9235 19.8255C15.7944 19.8247 15.6679 19.7889 15.5576 19.7219C15.4473 19.6549 15.3572 19.5592 15.297 19.445C15.2116 19.2794 15.1952 19.0868 15.2514 18.9091C15.3076 18.7315 15.4318 18.5833 15.597 18.497C15.934 18.3225 16.375 18.464 16.55 18.797C16.636 18.9595 16.653 19.15 16.5925 19.33C16.5664 19.4187 16.5226 19.5012 16.4638 19.5724C16.4049 19.6437 16.3321 19.7022 16.25 19.7445C16.1499 19.7988 16.0378 19.8268 15.924 19.826L15.9235 19.8255ZM14.992 17.419C14.834 17.4183 14.6808 17.3649 14.5566 17.2673C14.4325 17.1696 14.3444 17.0333 14.3065 16.88C14.2851 16.7898 14.2819 16.6963 14.2968 16.6048C14.3117 16.5134 14.3446 16.4257 14.3935 16.347C14.4915 16.1835 14.6445 16.075 14.8295 16.031C15.199 15.9385 15.585 16.1775 15.678 16.548C15.7029 16.6517 15.704 16.7598 15.6812 16.864C15.6584 16.9682 15.6122 17.0659 15.5462 17.1497C15.4801 17.2335 15.3959 17.3012 15.2999 17.3478C15.204 17.3943 15.0987 17.419 14.992 17.419ZM14.0615 19.8255C13.9406 19.8254 13.8219 19.7942 13.7167 19.7348C13.6115 19.6754 13.5234 19.5898 13.461 19.4864C13.3985 19.3829 13.3638 19.2651 13.3602 19.1444C13.3566 19.0236 13.3843 18.904 13.4405 18.797C13.615 18.464 14.056 18.3225 14.388 18.497C14.557 18.584 14.676 18.731 14.737 18.9105C14.7915 19.09 14.7745 19.2805 14.6875 19.4495C14.6284 19.564 14.5386 19.6598 14.4281 19.7262C14.3176 19.7925 14.1908 19.8267 14.062 19.825L14.0615 19.8255Z" fill="#173A70"/>
</svg>