<svg width="68" height="64" viewBox="0 0 68 64" fill="none" xmlns="http://www.w3.org/2000/svg">
<ellipse cx="34" cy="32" rx="34" ry="32" fill="#4F692F"/>
<path d="M42.2895 42.3101C42.2895 42.7065 42.132 43.0868 41.8517 43.3672C41.5713 43.6475 41.191 43.8051 40.7945 43.8051C40.398 43.8051 40.0178 43.6475 39.7374 43.3672C39.457 43.0868 39.2995 42.7065 39.2995 42.3101V41.0061H42.289L42.2895 42.3101ZM38.345 45.8616H34.0935L34.1 43.7636H32.6755L32.6735 45.8616H28.414V41.0061H38.345V45.8616ZM27.426 42.3101C27.426 42.7065 27.2686 43.0867 26.9882 43.367C26.7079 43.6473 26.3277 43.8048 25.9313 43.8048C25.5349 43.8048 25.1547 43.6473 24.8743 43.367C24.594 43.0867 24.4365 42.7065 24.4365 42.3101V41.0061H27.426V42.3101ZM33.3645 14.3521C33.8717 14.3521 34.3739 14.4521 34.8425 14.6463C35.311 14.8405 35.7367 15.125 36.0952 15.4838C36.4538 15.8425 36.7381 16.2683 36.9321 16.737C37.126 17.2056 37.2257 17.7079 37.2255 18.2151C37.2257 18.7222 37.1259 19.2243 36.9319 19.6929C36.738 20.1615 36.4536 20.5872 36.095 20.9458C35.7365 21.3045 35.3108 21.589 34.8423 21.7831C34.3738 21.9772 33.8717 22.0771 33.3645 22.0771C32.3401 22.0771 31.3577 21.6701 30.6333 20.9458C29.909 20.2214 29.502 19.2389 29.502 18.2146C29.502 17.1902 29.909 16.2077 30.6333 15.4834C31.3577 14.759 32.3401 14.3521 33.3645 14.3521ZM44.3485 39.5006H22.3785V26.6611H44.3485V39.5006ZM40.917 27.7216H25.8935V38.4576H40.917V27.7216Z" fill="white"/>
<path d="M34.0935 34.0675V35.01H36.845C36.9595 35.01 37.1275 35.113 37.1275 35.291C37.1275 36.896 36.9265 37.652 36.081 37.652C35.204 37.652 35.024 35.7535 34.0935 35.6285V37.4455H32.623V35.625C31.6465 35.699 31.489 37.652 30.5775 37.652C29.7325 37.652 29.577 36.896 29.577 35.291C29.577 35.113 29.7455 35.01 29.8595 35.01H32.6225V34.0675H29.762C29.6831 34.0675 29.6075 34.0362 29.5518 33.9804C29.496 33.9247 29.4647 33.8491 29.4647 33.7702C29.4647 33.6914 29.496 33.6158 29.5518 33.56C29.6075 33.5043 29.6831 33.473 29.762 33.473H32.6225V32.5305H29.403C29.324 32.5305 29.2483 32.4991 29.1924 32.4433C29.1366 32.3874 29.1052 32.3117 29.1052 32.2327C29.1052 32.1538 29.1366 32.078 29.1924 32.0222C29.2483 31.9663 29.324 31.935 29.403 31.935H32.6225V30.9935H29.6005C29.5613 30.9935 29.5225 30.9859 29.4863 30.9709C29.4502 30.956 29.4173 30.934 29.3896 30.9063C29.3619 30.8787 29.34 30.8458 29.325 30.8096C29.3101 30.7734 29.3024 30.7346 29.3025 30.6955C29.3025 30.5325 29.436 30.397 29.6005 30.397H32.6225V29.456H30.255C30.1758 29.456 30.0999 29.4245 30.0439 29.3685C29.9879 29.3126 29.9565 29.2366 29.9565 29.1575C29.9565 29.0783 29.9879 29.0024 30.0439 28.9464C30.0999 28.8904 30.1758 28.859 30.255 28.859H32.6225V28.3385H34.093V28.859H36.4605C36.5396 28.859 36.6155 28.8904 36.6715 28.9464C36.7275 29.0024 36.759 29.0783 36.759 29.1575C36.759 29.2366 36.7275 29.3126 36.6715 29.3685C36.6155 29.4245 36.5396 29.456 36.4605 29.456H34.093V30.3965H37.124C37.203 30.3969 37.2787 30.4284 37.3346 30.4843C37.3905 30.5402 37.4221 30.6159 37.4225 30.695C37.4225 30.7342 37.4148 30.773 37.3999 30.8092C37.3849 30.8454 37.3629 30.8783 37.3351 30.906C37.3074 30.9337 37.2745 30.9556 37.2382 30.9706C37.202 30.9855 37.1631 30.9931 37.124 30.993H34.093V31.9345H37.3225C37.4014 31.9345 37.4772 31.9658 37.533 32.0217C37.5888 32.0775 37.6202 32.1533 37.6202 32.2322C37.6202 32.3112 37.5888 32.3869 37.533 32.4428C37.4772 32.4986 37.4014 32.53 37.3225 32.53H34.093V33.4725H36.954C36.994 33.4708 37.034 33.4773 37.0715 33.4915C37.109 33.5057 37.1432 33.5273 37.1722 33.5551C37.2011 33.5829 37.2241 33.6162 37.2398 33.6531C37.2555 33.6899 37.2636 33.7296 37.2636 33.7697C37.2636 33.8098 37.2555 33.8495 37.2398 33.8864C37.2241 33.9233 37.2011 33.9566 37.1722 33.9844C37.1432 34.0121 37.109 34.0337 37.0715 34.0479C37.034 34.0621 36.994 34.0686 36.954 34.067L34.0935 34.0675ZM37.8645 23.022H28.991C27.3855 23.022 25.9 23.8785 25.0645 25.156H41.6615C41.2643 24.5049 40.7066 23.9667 40.0417 23.593C39.3768 23.2193 38.6271 23.0227 37.8645 23.022Z" fill="white"/>
</svg>
