<svg xmlns="http://www.w3.org/2000/svg" width="33" height="32" viewBox="0 0 33 32" fill="none">
  <path d="M6.02552 11.043C6.19664 9.3274 5.73033 7.60883 4.71552 6.21501C3.70547 4.81744 2.2169 3.83995 0.533023 3.46851C0.361335 5.18448 0.827292 6.90361 1.84202 8.29801C2.85205 9.696 4.34146 10.6732 6.02602 11.043H6.02552ZM5.34202 5.76051C5.60996 6.13239 5.84533 6.52668 6.04552 6.93901C6.24602 6.52801 6.47752 6.13201 6.74652 5.76051C7.05334 5.34003 7.40122 4.95112 7.78502 4.59951C7.62649 3.15473 7.02301 1.79489 6.05802 0.708008C5.08869 1.80127 4.48446 3.16964 4.32952 4.62251C4.69952 4.96651 5.04002 5.34501 5.34152 5.76051H5.34202ZM11.557 3.46851C9.87304 3.83969 8.38438 4.81724 7.37452 6.21501C6.98647 6.75017 6.67528 7.33703 6.45002 7.95851C6.74602 8.87951 6.87152 9.85151 6.81102 10.83C8.19196 10.3637 9.39329 9.47864 10.248 8.29801C11.2632 6.90381 11.7292 5.18452 11.557 3.46851ZM20.344 5.05151C19.9697 5.05154 19.599 5.12531 19.2531 5.2686C18.9073 5.4119 18.593 5.62191 18.3283 5.88665C17.7937 6.42132 17.4935 7.14644 17.4935 7.90251C17.4936 8.65857 17.794 9.38365 18.3287 9.91822C18.8633 10.4528 19.5885 10.7531 20.3445 10.753C21.1006 10.7529 21.8257 10.4525 22.3602 9.91787C22.8948 9.3832 23.1951 8.65807 23.195 7.90201C23.195 7.14594 22.8945 6.42087 22.3599 5.8863C21.8252 5.35172 21.1001 5.05144 20.344 5.05151ZM27.73 16.954L26.282 12.8245C26.001 12.047 25.461 11.4385 23.9375 11.4385H17.2475C15.725 11.4385 15.184 12.047 14.904 12.8245L13.456 16.954C13.347 17.221 13.291 17.8205 13.8805 18.222L17.2875 20.4685C17.4058 20.5465 17.5383 20.6005 17.6775 20.6274C17.8166 20.6542 17.9597 20.6533 18.0985 20.6249C18.2373 20.5964 18.3692 20.5409 18.4865 20.4615C18.6039 20.3821 18.7045 20.2803 18.7825 20.162C18.8606 20.0437 18.9145 19.9112 18.9414 19.7721C18.9682 19.6329 18.9674 19.4899 18.9389 19.351C18.9104 19.2122 18.8549 19.0803 18.7755 18.963C18.6961 18.8456 18.5943 18.745 18.476 18.667L15.7715 16.883L16.5335 14.782H17.587L16.9695 16.4865L19.022 17.841C19.2497 17.99 19.4454 18.1827 19.5979 18.4081C19.7503 18.6334 19.8564 18.8868 19.91 19.1535C19.9654 19.4197 19.9674 19.6942 19.916 19.9612C19.8646 20.2282 19.7607 20.4824 19.6105 20.709C19.4898 20.8888 19.3419 21.0487 19.172 21.183H22.014C21.8443 21.0486 21.6964 20.8887 21.5755 20.709C21.4254 20.4824 21.3216 20.2282 21.2702 19.9612C21.2188 19.6942 21.2207 19.4197 21.276 19.1535C21.3297 18.8868 21.4358 18.6334 21.5882 18.4081C21.7407 18.1828 21.9364 17.99 22.164 17.841L24.2165 16.4865L23.5985 14.782H24.652L25.415 16.883L22.7105 18.667C22.5881 18.7432 22.4821 18.8431 22.3989 18.9608C22.3157 19.0786 22.257 19.2119 22.2261 19.3527C22.1953 19.4936 22.193 19.6392 22.2193 19.781C22.2457 19.9227 22.3001 20.0578 22.3796 20.1782C22.459 20.2985 22.5617 20.4017 22.6816 20.4818C22.8016 20.5618 22.9364 20.6169 23.078 20.644C23.2196 20.6711 23.3653 20.6695 23.5063 20.6393C23.6473 20.6092 23.7808 20.5511 23.899 20.4685L27.306 18.222C27.895 17.8205 27.8375 17.221 27.73 16.954ZM26.521 23.18C26.521 22.8362 26.5886 22.4957 26.7202 22.1781C26.8517 21.8604 27.0446 21.5718 27.2877 21.3287C27.5308 21.0855 27.8194 20.8927 28.1371 20.7612C28.4547 20.6296 28.7952 20.5619 29.139 20.562C29.8338 20.5617 30.5002 20.8374 30.9918 21.3283C31.4833 21.8192 31.7599 22.4853 31.7605 23.18C31.7605 24.6235 30.584 25.799 29.139 25.799C27.694 25.799 26.521 24.6235 26.521 23.18ZM1.07652 28.429C0.921544 28.429 0.772898 28.4905 0.663218 28.6C0.553538 28.7095 0.491787 28.858 0.491523 29.013V29.7955C0.491523 29.7955 0.433523 30.905 1.57352 30.905H30.6035C31.75 30.905 31.692 29.822 31.692 29.822V27.4555C31.692 27.4555 31.594 26.699 30.7125 26.699H27.881C26.9115 26.699 26.1115 28.4285 24.2625 28.4285L1.07652 28.429Z" fill="white"/>
  <path d="M23.6 22.5115H15.4565L12.068 23.0305L12.2245 19.6805H11.6565L11.815 23.069L9.44901 23.431L9.62451 19.7505H9.05251L9.22701 23.4655L6.00651 23.959L6.17551 20.2565H5.61751L5.78551 23.992L1.92401 24.5835C1.89701 24.5835 1.87101 24.59 1.84401 24.592L2.00701 21.114H1.44451L1.60251 24.6235C1.25921 24.7025 0.956991 24.905 0.753488 25.1926C0.549985 25.4801 0.459439 25.8325 0.499121 26.1825C0.538802 26.5325 0.705934 26.8557 0.96864 27.0904C1.23135 27.3251 1.57125 27.4549 1.92351 27.455L13.058 27.456C12.8559 27.1339 12.748 26.7617 12.7465 26.3815C12.747 25.8361 12.9639 25.3132 13.3496 24.9275C13.7352 24.5419 14.2581 24.325 14.8035 24.3245H19.263L22.878 23.5695L23.0785 24.5295L19.3645 25.305H14.8035C14.6623 25.304 14.5222 25.3309 14.3914 25.3841C14.2605 25.4372 14.1414 25.5157 14.0409 25.6149C13.9404 25.7141 13.8603 25.8321 13.8054 25.9622C13.7505 26.0923 13.7217 26.232 13.7208 26.3732C13.7198 26.5145 13.7467 26.6545 13.7999 26.7854C13.853 26.9162 13.9314 27.0353 14.0306 27.1358C14.1298 27.2364 14.2479 27.3164 14.378 27.3713C14.5081 27.4263 14.6478 27.455 14.789 27.456L23.619 27.457C24.2725 27.4542 24.8983 27.1927 25.3595 26.7297C25.8207 26.2668 26.0798 25.64 26.08 24.9865C26.0801 24.6609 26.016 24.3386 25.8913 24.0379C25.7666 23.7372 25.5839 23.464 25.3536 23.2339C25.1232 23.0039 24.8498 22.8216 24.5489 22.6974C24.248 22.5731 23.9255 22.5095 23.6 22.51V22.5115Z" fill="white"/>
</svg>