<svg width="95" height="87" viewBox="0 0 95 87" fill="none" xmlns="http://www.w3.org/2000/svg">
<path d="M94.5608 37.56C94.7547 38.8603 94.8858 40.1788 94.9513 41.513L93.9525 41.562C93.9841 42.2043 94 42.8504 94 43.5C94 44.1496 93.9841 44.7957 93.9525 45.438L94.9513 45.487C94.8858 46.8212 94.7547 48.1397 94.5608 49.44L93.5718 49.2925C93.3802 50.5772 93.1259 51.8436 92.8116 53.0891L93.7812 53.3338C93.456 54.6225 93.0683 55.8893 92.6211 57.1314L91.6802 56.7926C91.2419 58.0101 90.745 59.2034 90.1924 60.3698L91.0961 60.798C90.529 61.9949 89.9049 63.1639 89.2269 64.3021L88.3678 63.7903C87.7069 64.8999 86.9933 65.9797 86.23 67.0271L87.0382 67.6161C86.2601 68.6838 85.4319 69.7182 84.5565 70.7165L83.8046 70.0572C82.9538 71.0275 82.0573 71.9631 81.1179 72.8613L81.809 73.5841C80.8555 74.4958 79.8591 75.3696 78.8228 76.2027L78.1962 75.4233C77.1904 76.2319 76.146 77.0015 75.0658 77.7295L75.6246 78.5588C74.5316 79.2954 73.4029 79.9901 72.2414 80.6405L71.7529 79.7679C70.6275 80.398 69.4705 80.9855 68.2845 81.5282L68.7005 82.4375C67.5035 82.9852 66.2776 83.488 65.0256 83.9434L64.6838 83.0036C63.4718 83.4444 62.2347 83.84 60.9749 84.1881L61.2412 85.152C59.9737 85.5023 58.6838 85.8053 57.3739 86.0589L57.1838 85.0771C55.9196 85.3219 54.6362 85.5197 53.336 85.6685L53.4497 86.6621C52.1449 86.8114 50.8237 86.9122 49.4882 86.9626L49.4505 85.9633C48.8037 85.9877 48.1535 86 47.5 86C46.8466 86 46.1963 85.9877 45.5495 85.9633L45.5118 86.9626C44.1763 86.9122 42.8551 86.8114 41.5503 86.6621L41.664 85.6685C40.3638 85.5197 39.0804 85.3219 37.8162 85.0771L37.6261 86.0589C36.3163 85.8053 35.0263 85.5023 33.7588 85.152L34.0251 84.1881C32.7653 83.84 31.5282 83.4444 30.3162 83.0036L29.9744 83.9434C28.7224 83.488 27.4965 82.9852 26.2995 82.4375L26.7155 81.5282C25.5295 80.9855 24.3725 80.398 23.2472 79.7679L22.7586 80.6405C21.5971 79.9901 20.4684 79.2954 19.3754 78.5588L19.9342 77.7295C18.854 77.0015 17.8096 76.2319 16.8038 75.4233L16.1772 76.2027C15.1409 75.3696 14.1445 74.4958 13.191 73.5841L13.8821 72.8613C12.9427 71.9631 12.0462 71.0275 11.1954 70.0572L10.4435 70.7165C9.56813 69.7182 8.73987 68.6838 7.96181 67.6161L8.76999 67.0271C8.00672 65.9797 7.29313 64.8999 6.6322 63.7903L5.77308 64.3021C5.09506 63.1639 4.47095 61.9949 3.9039 60.7979L4.80761 60.3698C4.25501 59.2034 3.75807 58.01 3.31977 56.7926L2.37889 57.1314C1.93173 55.8893 1.544 54.6225 1.21881 53.3337L2.18842 53.0891C1.87414 51.8436 1.61977 50.5772 1.42823 49.2925L0.439159 49.44C0.245295 48.1397 0.114171 46.8212 0.0486739 45.487L1.04747 45.438C1.01594 44.7957 1 44.1496 1 43.5C1 42.8504 1.01594 42.2043 1.04747 41.562L0.0486742 41.513C0.114172 40.1788 0.245296 38.8603 0.439161 37.56L1.42823 37.7075C1.61977 36.4228 1.87414 35.1564 2.18842 33.9109L1.21882 33.6662C1.54401 32.3775 1.93173 31.1107 2.3789 29.8686L3.31978 30.2074C3.75807 28.9899 4.25501 27.7966 4.80761 26.6302L3.9039 26.202C4.47095 25.0051 5.09506 23.8361 5.77308 22.6979L6.6322 23.2097C7.29313 22.1001 8.00672 21.0203 8.76999 19.9729L7.96182 19.3839C8.73988 18.3162 9.56814 17.2818 10.4435 16.2835L11.1954 16.9428C12.0462 15.9725 12.9427 15.0369 13.8821 14.1387L13.191 13.4159C14.1445 12.5042 15.1409 11.6304 16.1772 10.7973L16.8038 11.5767C17.8096 10.7681 18.854 9.99851 19.9342 9.2705L19.3754 8.44123C20.4684 7.70464 21.5971 7.00988 22.7586 6.35954L23.2471 7.23209C24.3725 6.60204 25.5295 6.01446 26.7155 5.47182L26.2995 4.56248C27.4965 4.0148 28.7224 3.51205 29.9744 3.05665L30.3162 3.99641C31.5282 3.55558 32.7653 3.15996 34.0251 2.81187L33.7588 1.84799C35.0263 1.49775 36.3162 1.19471 37.6261 0.94111L37.8162 1.92288C39.0804 1.6781 40.3638 1.48025 41.664 1.33146L41.5503 0.337946C42.8551 0.188625 44.1763 0.0877712 45.5118 0.0374145L45.5495 1.0367C46.1963 1.01232 46.8465 1 47.5 1C48.1534 1 48.8037 1.01232 49.4505 1.0367L49.4882 0.0374143C50.8237 0.0877708 52.1449 0.188625 53.4497 0.337946L53.336 1.33146C54.6362 1.48025 55.9196 1.67809 57.1838 1.92288L57.3739 0.941108C58.6837 1.19471 59.9737 1.49775 61.2412 1.84798L60.9749 2.81187C62.2347 3.15996 63.4718 3.55557 64.6838 3.99641L65.0256 3.05665C66.2776 3.51205 67.5035 4.01479 68.7005 4.56247L68.2845 5.47182C69.4705 6.01445 70.6275 6.60204 71.7528 7.23209L72.2414 6.35954C73.4029 7.00988 74.5316 7.70464 75.6246 8.44123L75.0658 9.27049C76.146 9.9985 77.1904 10.7681 78.1962 11.5767L78.8228 10.7973C79.8591 11.6304 80.8555 12.5042 81.809 13.4159L81.1179 14.1387C82.0573 15.0369 82.9538 15.9726 83.8046 16.9428L84.5565 16.2835C85.4319 17.2818 86.2601 18.3162 87.0382 19.3839L86.23 19.9729C86.9933 21.0203 87.7069 22.1001 88.3678 23.2097L89.2269 22.6979C89.9049 23.8361 90.5291 25.0051 91.0961 26.2021L90.1924 26.6302C90.745 27.7966 91.2419 28.99 91.6802 30.2074L92.6211 29.8686C93.0683 31.1107 93.456 32.3775 93.7812 33.6662L92.8116 33.9109C93.1259 35.1564 93.3802 36.4228 93.5718 37.7075L94.5608 37.56Z" fill="white" stroke="#4F692F" stroke-width="2" stroke-miterlimit="2.03203" stroke-linejoin="round" stroke-dasharray="4 4"/>
<ellipse cx="47" cy="43" rx="34" ry="32" fill="#4F692F"/>
<g clip-path="url(#clip0_123_60)">
<path d="M49.926 47.9507L42.194 44.3225L42.96 43.2455L50.6905 46.8737L49.926 47.9507Z" fill="white"/>
<path d="M57.8155 50.0166C60.0485 48.303 61.4635 45.8956 61.4635 43.2086C61.4635 39.8981 59.3235 36.9121 55.996 35.2351L59.724 29.9921L59.1385 29.7179L60.058 28.4187L57.6475 27.2881L56.726 28.5852L56.1095 28.296L46.9445 41.1952L47.745 41.5706L46.6085 43.168L48.6225 44.1129L49.7595 42.5147L50.559 42.8901L54.413 37.4671C55.6012 38.0824 56.5795 38.931 57.2575 39.9345C57.9355 40.9381 58.2915 42.0642 58.2925 43.209C58.2925 46.9628 54.5315 50.017 49.911 50.017H43.158V52.5946H62.167V50.017H57.8165L57.8155 50.0166ZM40.9415 30.1952V28.1489H41.2515L41.247 27.6582H38.4225L38.427 28.1489H38.76V30.1952H36.6525V28.1489H36.9615L36.958 27.6582H34.131L34.1365 28.1489H34.4695V30.1952H31.375V40.4453H44.0095V30.1952H40.9425H40.9415ZM42.9395 39.5776H32.4435V31.063H34.469V37.6117C34.469 38.1073 34.9675 38.5099 35.569 38.5099C36.1715 38.5079 36.652 38.1065 36.652 37.6117V31.063H38.7595V37.6117C38.7595 38.1073 39.2585 38.5099 39.86 38.5099C40.4625 38.5079 40.943 38.1065 40.942 37.6117V31.063H42.9395V39.5776Z" fill="white"/>
</g>
<defs>
<clipPath id="clip0_123_60">
<rect width="32" height="26" fill="white" transform="translate(31 27)"/>
</clipPath>
</defs>
</svg>
